<svg id="visual" viewBox="0 0 900 600" width="900" height="600" xmlns="http://www.w3.org/2000/svg" xmlns:xlink="http://www.w3.org/1999/xlink" version="1.1"><rect x="0" y="0" width="900" height="600" fill="#583d72"></rect><defs><linearGradient id="grad1_0" x1="33.3%" y1="100%" x2="100%" y2="0%"><stop offset="20%" stop-color="#9f5f80" stop-opacity="1"></stop><stop offset="80%" stop-color="#9f5f80" stop-opacity="1"></stop></linearGradient></defs><defs><linearGradient id="grad1_1" x1="33.3%" y1="100%" x2="100%" y2="0%"><stop offset="20%" stop-color="#9f5f80" stop-opacity="1"></stop><stop offset="80%" stop-color="#583d72" stop-opacity="1"></stop></linearGradient></defs><defs><linearGradient id="grad2_0" x1="0%" y1="100%" x2="66.7%" y2="0%"><stop offset="20%" stop-color="#9f5f80" stop-opacity="1"></stop><stop offset="80%" stop-color="#9f5f80" stop-opacity="1"></stop></linearGradient></defs><defs><linearGradient id="grad2_1" x1="0%" y1="100%" x2="66.7%" y2="0%"><stop offset="20%" stop-color="#583d72" stop-opacity="1"></stop><stop offset="80%" stop-color="#9f5f80" stop-opacity="1"></stop></linearGradient></defs><g transform="translate(900, 600)"><path d="M-270.4 0C-265.2 -22.2 -260 -44.5 -256 -68.6C-252 -92.7 -249.2 -118.7 -234.2 -135.2C-219.2 -151.7 -192.1 -158.6 -174.7 -174.7C-157.2 -190.7 -149.4 -216 -133 -230.4C-116.6 -244.7 -91.4 -248.2 -67.8 -253.1C-44.2 -257.9 -22.1 -264.2 0 -270.4L0 0Z" fill="#7e4c7a"></path><path d="M-135.2 0C-132.6 -11.1 -130 -22.2 -128 -34.3C-126 -46.4 -124.6 -59.4 -117.1 -67.6C-109.6 -75.8 -96 -79.3 -87.3 -87.3C-78.6 -95.4 -74.7 -108 -66.5 -115.2C-58.3 -122.4 -45.7 -124.1 -33.9 -126.5C-22.1 -129 -11 -132.1 0 -135.2L0 0Z" fill="#9f5f80"></path></g><g transform="translate(0, 0)"><path d="M270.4 0C248.8 19.6 227.2 39.3 215.4 57.7C203.6 76.1 201.6 93.3 198.3 114.5C195 135.7 190.3 160.8 177.5 177.5C164.6 194.1 143.6 202.2 125 216.5C106.4 230.8 90.4 251.2 70 261.2C49.6 271.2 24.8 270.8 0 270.4L0 0Z" fill="#7e4c7a"></path><path d="M135.2 0C124.4 9.8 113.6 19.6 107.7 28.9C101.8 38.1 100.8 46.7 99.2 57.2C97.5 67.8 95.2 80.4 88.7 88.7C82.3 97.1 71.8 101.1 62.5 108.3C53.2 115.4 45.2 125.6 35 130.6C24.8 135.6 12.4 135.4 0 135.2L0 0Z" fill="#9f5f80"></path></g></svg>